<mxfile host="65bd71144e">
    <diagram id="gtunf-nV3JT59g2BsxBn" name="Page-1">
        <mxGraphModel dx="990" dy="815" grid="1" gridSize="10" guides="1" tooltips="1" connect="1" arrows="1" fold="1" page="1" pageScale="1" pageWidth="827" pageHeight="1169" math="0" shadow="0">
            <root>
                <mxCell id="0"/>
                <mxCell id="1" parent="0"/>
                <mxCell id="18" style="edgeStyle=orthogonalEdgeStyle;rounded=0;orthogonalLoop=1;jettySize=auto;html=1;exitX=1;exitY=0.5;exitDx=0;exitDy=0;entryX=0;entryY=0.5;entryDx=0;entryDy=0;" edge="1" parent="1" source="14" target="17">
                    <mxGeometry relative="1" as="geometry"/>
                </mxCell>
                <mxCell id="19" value="输入" style="edgeLabel;html=1;align=center;verticalAlign=middle;resizable=0;points=[];" vertex="1" connectable="0" parent="18">
                    <mxGeometry x="-0.08" y="-2" relative="1" as="geometry">
                        <mxPoint as="offset"/>
                    </mxGeometry>
                </mxCell>
                <mxCell id="14" value="babelTraverse" style="rounded=0;whiteSpace=wrap;html=1;align=left;verticalAlign=top;" vertex="1" parent="1">
                    <mxGeometry x="282" y="140" width="390" height="320" as="geometry"/>
                </mxCell>
                <mxCell id="15" style="edgeStyle=orthogonalEdgeStyle;rounded=0;orthogonalLoop=1;jettySize=auto;html=1;entryX=0;entryY=0.5;entryDx=0;entryDy=0;" edge="1" parent="1" target="14">
                    <mxGeometry relative="1" as="geometry">
                        <mxPoint x="203" y="300" as="sourcePoint"/>
                    </mxGeometry>
                </mxCell>
                <mxCell id="16" value="输入" style="edgeLabel;html=1;align=center;verticalAlign=middle;resizable=0;points=[];" vertex="1" connectable="0" parent="15">
                    <mxGeometry x="-0.0886" y="-2" relative="1" as="geometry">
                        <mxPoint as="offset"/>
                    </mxGeometry>
                </mxCell>
                <mxCell id="8" value="source-code" style="shape=note;whiteSpace=wrap;html=1;backgroundOutline=1;darkOpacity=0.05;" vertex="1" parent="1">
                    <mxGeometry x="122" y="240" width="80" height="100" as="geometry"/>
                </mxCell>
                <mxCell id="13" value="输出" style="edgeStyle=orthogonalEdgeStyle;rounded=0;orthogonalLoop=1;jettySize=auto;html=1;exitX=0.5;exitY=1;exitDx=0;exitDy=0;entryX=0.5;entryY=0;entryDx=0;entryDy=0;entryPerimeter=0;" edge="1" parent="1" source="11" target="12">
                    <mxGeometry relative="1" as="geometry"/>
                </mxCell>
                <mxCell id="11" value="const ast = require('@babel/parser')(sourceCode);&lt;br&gt;const docs = require('@babel/traverse')(ast);" style="shape=process;whiteSpace=wrap;html=1;backgroundOutline=1;align=left;verticalAlign=top;" vertex="1" parent="1">
                    <mxGeometry x="292" y="190" width="370" height="50" as="geometry"/>
                </mxCell>
                <mxCell id="12" value="docs.json" style="shape=card;whiteSpace=wrap;html=1;align=center;verticalAlign=middle;" vertex="1" parent="1">
                    <mxGeometry x="437" y="330" width="80" height="100" as="geometry"/>
                </mxCell>
                <mxCell id="21" value="输出" style="edgeStyle=orthogonalEdgeStyle;rounded=0;orthogonalLoop=1;jettySize=auto;html=1;entryX=0;entryY=0.5;entryDx=0;entryDy=0;entryPerimeter=0;" edge="1" parent="1" source="17" target="20">
                    <mxGeometry relative="1" as="geometry"/>
                </mxCell>
                <mxCell id="17" value="mdTransform" style="rounded=0;whiteSpace=wrap;html=1;align=center;verticalAlign=middle;" vertex="1" parent="1">
                    <mxGeometry x="772" y="270" width="120" height="60" as="geometry"/>
                </mxCell>
                <mxCell id="20" value="README.md" style="shape=note;whiteSpace=wrap;html=1;backgroundOutline=1;darkOpacity=0.05;align=center;verticalAlign=middle;" vertex="1" parent="1">
                    <mxGeometry x="962" y="250" width="80" height="100" as="geometry"/>
                </mxCell>
            </root>
        </mxGraphModel>
    </diagram>
</mxfile>
